<svg xmlns="http://www.w3.org/2000/svg" width="449" height="245" fill="none"><rect width="240" height="243.701" x="208.359" y="1.133" fill="#20207C" rx="120"/><mask id="a" width="212" height="194" x="209" y="14" maskUnits="userSpaceOnUse" style="mask-type:luminance"><path fill="#fff" stroke="#fff" stroke-width="2.113" d="m210.404 49.582 29.758 156.706 179.091-33.903L389.495 15.68 210.404 49.582Z"/></mask><g mask="url(#a)"><mask id="b" width="212" height="194" x="209" y="14" maskUnits="userSpaceOnUse" style="mask-type:luminance"><path fill="#fff" stroke="#fff" stroke-width="2.818" d="m210.815 49.863 29.627 156.014 178.399-33.771-29.627-156.014-178.399 33.771Z"/></mask><g stroke="#DDE" stroke-miterlimit="10" stroke-width="2.818" mask="url(#b)"><path d="M338.644 124.056c7.278-.824 15.409.354 22.738.505 1.918.039 4.569-.765 6.489-.694 1.748.067 3.223-.325 4.907.161 1.777.515 3.399 1.477 4.995 2.429 4.022 2.397 8.044 4.793 12.071 7.188 1.721 1.024 3.569 2.203 4.228 4.114.655 1.892-.093 4.065-1.46 5.493s-3.242 2.223-5.125 2.76c-8.018 2.289-17.123.292-23.578-5.171"/><path d="M381.616 130.707a16.989 16.989 0 0 1-1.765 10.006c-.064.125-.171.264-.307.233-.135-.031-.022-.313.06-.196m-9.002-13.035c-1.395 1.963-2.081 4.441-1.901 6.874m-2.256-4.351a23.493 23.493 0 0 1-.506 3.788m4.569-9.76c-14.891-17.552-34.519-30.069-51.813-45.149-5.85-5.1-11.438-10.504-17.37-15.502a170.255 170.255 0 0 0-24.968-17.49m106.065 120.992c-5.323.572-11.731 3.664-17.524 2.394-1.427-.203-2.307-2.403-1.761-4.4 1.365-4.993 6.017-7.294 10.483-8.139 1.886-2.251 5.191-5.944 7.07-7.574m-13.549-6.389c-.813.202-1.668.06-2.5-.033a21.682 21.682 0 0 0-10.291 1.36c-1.352.531-2.654 1.199-4.064 1.547-2.494.609-5.116.149-7.655-.307m-9.076-30.353a170.578 170.578 0 0 0-12.655 8.791c-2.331 1.781-4.614 3.62-6.817 5.565-2.12 1.874-4.182 3.851-6.606 5.289-6.451 3.82-14.451 3.28-21.912 2.629.134-.073-2.387-.216-2.253-.289"/><path d="M353.203 145.34c-4.205 3.854-6.475 9.44-10.187 13.792-4.19 4.907-10.25 8.099-16.612 8.755-6.362.655-12.967-1.233-18.107-5.18-.173-.132-.361-.319-.304-.529.057-.209.478-.09.344.082m51.333-19.35c-.403 4.143-.802 8.37.1 12.441a19.826 19.826 0 0 0 1.66 4.647c-.349.014-.653-.392-.547-.734m9.952 10.286c.317-1.3.532-2.628.644-3.965.034-.405.053-.843-.161-1.191-.394-.636-1.286-.609-2.012-.505l-4.026.578c-.342.05-.737.139-.874.463-.102.247-.007.527.075.787a7.267 7.267 0 0 1 .095 4.081m17.742-37.876a38.355 38.355 0 0 1 7.297 2.245c.583.245 1.181.519 1.602 1.004.455.519.649 1.226.756 1.911.357 2.318-.34 4.983-2.315 6.157-1.941 1.153-4.412.546-6.552-.199-1.313-.461-2.812-1.191-3.05-2.59"/><path d="M384.497 134.25c.315.323.267.848.18 1.291a17.28 17.28 0 0 1-2.037 5.352m-12.321-31.569 1.372 7.178c.117.617.236 1.243.506 1.812.404.861 1.115 1.536 1.896 2.065 1.19.807 2.642 1.318 4.033 1.04 1.667-.335 2.921-1.722 3.848-3.171.928-1.449 1.669-3.053 2.885-4.253.09-.088.191-.211.145-.33-.045-.12-.283-.009-.185.072"/><path d="M360.111 99.484c3.341.031 6.297 2.146 9.483 3.21 2.722.909 5.617 1.052 8.452 1.458a44.133 44.133 0 0 1 8.261 2.01c2.485.86 5.047 2.069 6.458 4.335 1.08 1.742 1.33 3.863 1.714 5.882a38.025 38.025 0 0 0 2.583 8.293c.74 1.678 1.612 3.321 2.026 5.113.363 1.573.359 3.208.434 4.822a48.393 48.393 0 0 0 1.862 11.194c.218.754.357 1.779-.325 2.135"/><path d="M386.551 131.192c-.349-3.688 2.054-7.433 5.488-8.571m-17.812 2.048c-1.217-9.451-7-17.711-13.619-24.478"/><path d="M364.266 110.877a46.654 46.654 0 0 0-6.712-16.122c-.5-.753-1.212-1.584-2.084-1.447"/><path d="M358.437 105.299c.028-7.552-3.896-15.037-10.082-19.23-3.228-2.186-7.027-3.55-9.792-6.322-1.269-1.274-2.277-2.807-3.558-4.07-2.652-2.608-6.384-3.965-8.673-6.908m3.246 10.289-1.875-5.634c-.786-2.36-1.627-4.814-3.354-6.58-1.665-1.696-4.03-2.63-5.4-4.582"/><path d="M323.117 73.642c-1.421-2.415-1.567-5.38-2.609-7.99-2.282-5.703-8.272-8.697-13.584-11.62a116.082 116.082 0 0 1-11.738-7.413 18.056 18.056 0 0 1 4.638 8.273c-3.256-4.7-7.705-8.54-12.784-11.039-2.484-1.22-5.103-2.125-7.712-3.023-4.732-1.627-9.836-3.265-14.595-1.82 2.494 5.365 6.675 9.696 10.781 13.918 2.996 3.083 6.092 6.232 9.973 7.983 1.735.78 3.59 1.266 5.255 2.191m63.305 61.019c-1.63-2.807-5.264-3.378-8.373-4.087a35.657 35.657 0 0 1-9.123-3.456c-2.973-1.62-5.709-3.653-8.435-5.68-2.51-1.868-5.021-3.736-7.537-5.603-1.632-1.216-3.27-2.434-4.711-3.885"/><path d="M335.703 104.889c-2.169-1.625-4.952-2.106-7.627-2.182-2.675-.076-5.365.206-8.024-.105-2.659-.311-5.395-1.317-7.082-3.455-1.797-2.273-2.583-4.44-4.669-6.435-4.528-4.331-8.292-9.409-12.032-14.462 3.945 3.017 9.778.18 14.35 2.041-4.911-1.892-9.826-3.778-14.738-5.67-1.054-.406-2.116-.811-3.058-1.437-.989-.651-1.825-1.52-2.645-2.378l-6.98-7.276a59.75 59.75 0 0 1 8.089-.333m-3.692 72.687c-.533-1.149-2.266-1.185-3.2-.355-.934.83-1.252 2.154-1.464 3.401-.841 4.879-.846 9.87-.852 14.837-.007 11.799.137 24.227 5.917 34.495.189.333.387.674.686.907.543.422 1.37.393 1.875-.067.505-.46.624-1.297.274-1.893"/><path d="M362.625 166.395c-14.449 10.399-33.675 13.603-50.739 8.454-1.031-.311-2.062-.651-3.13-.747-.984-.084-1.973.042-2.936.233-6.805 1.345-12.768 5.708-19.618 6.787m67.884-36.471c-.036-.192.159-.381.344-.336-1.436 3.401-2.396 7.096-2.126 10.804.158 2.176.732 4.297 1.308 6.404.196.715.388 1.432.585 2.151m-2.408-17.022c-1.882 2.127-4.926 2.665-7.74 2.805a43.186 43.186 0 0 1-9.618-.607m8.272 4.927a13.177 13.177 0 0 1-8.183-.07m63.55-9.399c-1.807-.406-3.468-1.502-4.584-3.019m-7.254-10.594c.305-1.123-.155-2.328-.818-3.282-.662-.954-1.529-1.746-2.212-2.682a8.632 8.632 0 0 1-1.535-3.724c-.098-.616-.149-1.297-.58-1.741m16.991 34.954c-.557 1.332-1.81 2.184-2.949 3.034a34.658 34.658 0 0 0-7.854 8.223c-.473.701-.959 1.451-1.713 1.821-1.137.565-2.53.076-3.567-.683-2.753-2.026-3.879-6.079-2.571-9.252.641-1.546 1.759-2.823 2.706-4.195a22.117 22.117 0 0 0 3.201-6.945m-11.753-.219c-.806 3.698-1.289 8.855-3.881 12.328m3.901 8.319c.625-1.724.1-3.831-1.265-5.049"/><path d="M386.273 166.15a9.418 9.418 0 0 0-1.261-7.151l2.696-1.349c1.06-.532 2.334-1.057 3.369-.457.67.389 1.046 1.245.887 2.014-.16.768-.844 1.381-1.608 1.45m6.722-16.936c-.084.044-.116-.144-.024-.175.091-.032.179.041.266.086.352.198.817.016 1.055-.313.239-.329.296-.757.311-1.167.1-2.518-1.05-4.895-1.754-7.313-.069-.243-.137-.5-.071-.74.084-.309.356-.512.6-.714.496-.407.944-.899 1.177-1.501.232-.603.649-1.576.275-2.107m-15.624-4.552a14.35 14.35 0 0 1-5.456-3.952m17.179 21.497 17.579 15.045c1.126.96 2.266 1.943 3.109 3.165.658.955 1.117 2.033 1.536 3.118a49.236 49.236 0 0 1 2.256 7.668l-8.307-5.325c-.8-.511-1.602-1.027-2.325-1.647-.731-.629-1.373-1.355-2.014-2.076-5.499-6.178-11.299-12.139-17.912-17.046"/><path d="M413.633 162.948c-1.514.286-3.01-.77-3.05-1.979-.015-.424.209-.878.602-1 .541-.168 1.343.276 1.869.953.527.677.662 2.289.663 2.294.014.589.248.138.335.254a35.678 35.678 0 0 1 4.018 6.885m-42.365-15.859c-.302-1.638-.422-3.367.124-4.923.387-1.106 1.088-2.067 1.78-3.003m-2.781 8.967-1.237-2.862c-.264-.608-.828-2.48-.711-3.132m-81.622-11.156c-.081-1.571-.38-3.247-1.468-4.366-.672-.692-1.573-1.099-2.466-1.437-6.401-2.428-13.395-2.274-20.199-2.339a275.268 275.268 0 0 1-27.698-1.679m55.487 50.934c-1.578 5.454.331 15.508-7.695 14.66-10.792-.798-20.605-1.307-31.397-2.104-2.853-.407-16.676 1.012-19.059-.057"/><path d="m291.414 180.765-.069-.464a24.146 24.146 0 0 1-.151 4.786"/></g></g><rect width="240" height="243.701" y=".648" fill="#DDE" rx="120"/><g stroke="#20207C" stroke-linecap="round" stroke-linejoin="round" stroke-width="2" clip-path="url(#c)"><path d="M121.408 41.35c-2.92-.303-5.845-.207-8.769-.234-3.802-.037-7.571.422-11.268 1.193-4.2.876-8.38 1.862-12.438 3.348-3.994 1.46-7.754 3.322-11.382 5.52-2.276 1.375-4.648 2.6-6.823 4.137a108.97 108.97 0 0 0-8.567 6.716c-2.842 2.473-5.424 5.147-7.375 8.377-1.814 3-3.002 6.239-3.697 9.707-.662 3.308-.726 6.624-.617 9.955.05 1.606.37 3.211.599 4.812.137.968.224 1.973.297 2.964.388 4.973 2.116 9.147 6.927 11.446 1.613.77 3.07 1.78 4.341 3.073 3.546 3.606 7.165 7.139 10.688 10.772 2.696 2.78 5.232 5.72 7.969 8.468 3.884 3.895 8.316 7.001 12.986 9.845 3.455 2.101 7.01 4.019 10.4 6.235 2.984 1.954 5.118 4.546 6.708 7.684 1.54 3.037 2.956 6.142 3.943 9.39 1.001 3.29 1.554 6.716 2.792 9.928 1.887 4.885 3.523 9.881 6.439 14.326 1.983 3.024 4.619 5.116 7.763 6.753 2.074 1.083 4.24 1.922 6.511 2.202 2.248.276 4.538.23 6.836-.114a31.198 31.198 0 0 0 6.936-1.895c2.185-.872 4.355-1.771 6.494-2.748 2.641-1.206 5.286-2.422 7.854-3.78 4.963-2.624 9.651-5.661 13.919-9.349 4.871-4.207 9.157-8.905 12.515-14.424 2.44-4.009 4.661-8.119 6.539-12.445 1.691-3.891 3.162-7.827 4.3-11.91.653-2.339 1.161-4.702 1.604-7.087.703-3.79.959-7.606.987-11.442.027-4.179-.343-8.326-.978-12.468-.996-6.519-2.801-12.809-5.054-18.974-2.897-7.941-6.808-15.373-11.647-22.277-2.477-3.533-5.31-6.79-8.591-9.666-2.979-2.615-5.958-5.212-9.266-7.386-6.018-3.96-12.31-7.372-19.233-9.528a77.264 77.264 0 0 0-9.235-2.267c-2.714-.49-5.465-.646-8.197-.95-3.907-.426-7.832-.288-11.734-.559-3.807-.261-7.599.078-11.392.197-3.007.092-6.013.528-9.011 1.033a89.514 89.514 0 0 0-13.306 3.293c-4.757 1.57-9.299 3.657-13.713 6.083a76.203 76.203 0 0 0-10.898 7.272c-4.592 3.674-8.992 7.555-12.081 12.684-1.796 2.977-3.039 6.143-3.692 9.597-.69 3.656-.763 7.322-.59 10.983.12 2.527.645 5.046 1.106 7.546a121.896 121.896 0 0 0 1.71 7.891c.817 3.202 2.147 6.193 4.198 8.808 1.929 2.459 2.011 5.106.905 7.895-1.316 3.312-3.482 6.078-5.698 8.799-1.362 1.674-2.783 3.303-4.213 4.917-1.083 1.225-2.399 2.175-3.733 3.12-1.074.757-2.22 1.532-2.742 2.835-.809 2.019.412 4.239 1.92 5.386 1.649 1.252 3.591 1.803 5.478 2.495 1.06.39 2.088.817 3.08 1.367 1.814 1.01 2.38 3.083 1.992 4.804-.343 1.513-1.188 2.816-2.422 3.936-1.85 1.683-.84 3.468.864 4.555.996.633 2.239.803 3.148 1.67-.301.688-.936.587-1.43.702-1.12.257-2.29.399-3.07 1.385-1.417 1.785-.544 4.276 1.823 4.9 1.535.408 2.394 1.275 2.769 2.862.292 1.239-.096 2.248-.49 3.326-.685 1.881-1.736 3.629-2.156 5.606-.47 2.216-.978 4.395-.63 6.753.543 3.73 2.791 5.757 6.095 6.831 2.577.839 5.223 1.073 7.974.771 1.923-.212 3.874-.285 5.798-.537 2.669-.349 5.319-.821 7.978-1.239 2.696-.422 5.392-.826 8.088-1.261a21.542 21.542 0 0 1 5.013-.253c2.33.165 4.217 1.23 6.036 2.542 2.851 2.05 4.908 4.844 7.06 7.551"/><path d="M155.695 47.871c1.179.959 2.673 1.266 3.999 1.918 3.395 1.67 6.812 3.261 9.915 5.49a225.344 225.344 0 0 1 11.131 8.506c4.369 3.565 7.444 8.24 10.487 12.91 2.742 4.215 4.885 8.739 6.891 13.354a109.054 109.054 0 0 1 3.925 10.432c.959 3.023 1.718 6.096 2.225 9.248.822 5.129 1.284 10.272 1.051 15.442-.128 2.83-.603 5.651-1.037 8.473-1.06 6.863-3.907 13.115-6.274 19.52-.96 2.592-2.061 5.165-3.231 7.688-.868 1.867-2.129 3.464-3.427 5.024-2.033 2.449-4.35 4.628-6.612 6.858-1.073 1.06-2.266 1.996-3.404 2.986m-75.996-87.139c0-.078.032-.183-.005-.225-1.622-1.679-2.211-3.917-3.198-5.945-.448-.922-1.01-1.716-2.262-1.757-1-.032-1.504-1.06-2.258-1.601-1.238-.88-2.28-.895-3.066.39-1.238 2.028-3.152 2.56-5.268 2.844-1.38.184-2.829 1.353-3.043 2.633-.11.67-.37 1.005-.942 1.262-.767.349-1.069.858-.973 1.826.1.981.402 1.995.252 2.963-.224 1.422-1.385 2.262-2.495 2.945-1.147.712-2.175 1.57-3.277 2.33-.863.593-1.105 1.464-.557 2.267.58.858.489 1.725.329 2.642-.224 1.276-.279 2.45.996 3.354.47.335 1.065.977.544 1.771.43.174.717.472 1.188.504.685.046 1.27.945 1 1.565-.25.582-.141 1.036-.018 1.619.201.95.695 1.188 1.526 1.133 1.161-.073 2.308-.023 3.3.693.42.303.918.413 1.37.417.626.01 1.175.271 1.33.73.352 1.037 1.179.761 1.736.633 1.463-.33 2.833-.353 4.104.509.658.445 1.412-.009 2.056.335m23.481 61.762c.246 1.908.516 3.784 1.224 5.615 1.609 4.17 4.236 7.161 8.435 8.964 4.976 2.138 10.126 2.766 15.399 2.413 4.711-.317 9.166-1.812 13.324-4.078 4.273-2.326 8.737-4.262 13-6.606 2.372-1.303 4.716-2.625 6.708-4.478"/><path d="M125.156 132.262c.85-.165 1.549-.528 1.947-1.367.215-.454.777-.5 1.119-.418.325.083.654.459.594.987-.068.614.229 1.078.782 1.376.164.087.365.193.448.344.968 1.798 2.645.812 4.002.973.343.041.809-.445 1.042-.968.667-1.501 1.832-2.101 3.514-1.987 1.289.087 2.614.23 3.893-.376.388-.183 1.019.193 1.572.197 2.221.014 4.154-.647 5.698-2.303.26-.279.512-.587 1.019-.692 1.129.931 2.541 1.706 2.641 3.546.018.362.361.509.772.596.855.184 1.677.505 2.513.775 1.129.367 2.061.042 2.847-.802.425-.455.8-.959 1.261-1.363 1.252-1.096 1.691-1.082 3.391.055 1.014-1.078 2.321-.564 3.55-.504 1.723.078 3.053-.468 3.884-2.065.224-.426.59-.775.9-1.151.572-.693 1.426-1.152 1.604-2.17.357-2.032.343-4.037-.484-5.941-.695-1.606-2.774-2.234-4.88-1.61m1.268-42.65c-2.797-2.463-5.274-5.289-8.522-7.239-1.17-.702-2.386-1.027-3.66-1.353-3.172-.807-5.959-2.44-8.655-4.23-1.75-1.16-3.756-1.633-5.702-2.27-2.66-.877-5.351-1.523-8.203-1.413-1.279.05-2.568-.363-3.751-.895-1.933-.867-3.907-1.519-6.045-1.596-.457-.019-.91-.143-1.367-.22m62.646 72.39c-.114.078-.324.151-.329.229-.036 2.913-.932 5.634-1.846 8.345-1.156 3.441-2.156 6.941-3.838 10.193-.74 1.427-1.75 2.574-2.883 3.638-.759.711-1.321 1.514-1.59 2.524-.43 1.623-1.682 2.724-2.646 3.981a46.814 46.814 0 0 1-7.389 7.666 7.845 7.845 0 0 1-2.161 1.253c-1.531.578-2.486 1.757-3.409 2.995M71.055 77.258a8.601 8.601 0 0 0-3.157 2.651c-1.376 1.89-2.961 3.602-4.364 5.464-1.508 2-2.285 4.276-2.358 6.753-.032 1.023.11 2.12.462 3.074.672 1.844.713 3.72.635 5.615-.069 1.637.516 3.05 1.394 4.335 1.343 1.977 2.76 3.899 4.875 5.17.585.349.864.991.8 1.697-.069.803.173 1.409.79 1.959 1.02.904 1.86 1.955 1.956 3.418.01.156.1.367.224.45 1.736 1.197 2.49 3.202 3.825 4.734 1.27 1.459 2.704 2.642 4.254 3.739m99.909-19.895c.371 1.046 1.39 1.739 1.586 2.858.443 2.5.48 5-.352 7.427-.704 2.064-.946 4.046.119 6.074.818 1.555.416 3.188.128 4.798-.27 1.487-.823 2.992-.74 4.455.192 3.294-1.577 5.661-3.4 7.978-.937 1.188-2.084 2.225-2.554 3.697-.229.716-.279 1.454-1.056 1.821"/><path d="M178.362 123.918c-.192-1.487-.206-2.978.009-4.459.238-1.634.393-3.203-1.019-4.478-.452-.408-.859-.968-.37-1.702.507-.757-.32-1.252-.612-1.67-.85-1.22-2.134-1.968-3.597-2.312-.804-.193-1.594-.358-2.165-1.037-.119-.142-.357-.367-.444-.325-1.06.472-2.156-.17-3.194.114-.918.253-1.023 1.253-1.485 1.927-1.371 1.987-2.499 4.115-3.518 6.294-.777 1.661-2.321 2.294-3.77 3.083-.388.211-.758.454-1.142.684M62.407 72.11c-3.326 3.353-5.766 7.239-7.192 11.77-.804 2.56-.75 5.061-.279 7.68.242 1.34.443 2.753.142 4.235-.32 1.564-.22 3.257.598 4.794.754 1.413 1.252 2.963 2.28 4.234.302.372.549.766 1.033.908m22.667 21.16c2.765 1.335 4.656 3.683 6.713 5.84.671.706 1.517 1.146 2.284 1.706 3.971 2.895 8.504 4.711 12.854 6.895 1.791.899 3.473 2 4.615 3.831.622.995 1.732 1.679 2.568 2.55 2.257 2.345 4.003 5.014 5.41 7.973.923 1.936 1.517 3.803 1.609 5.969.077 1.894.324 3.885 1.631 5.5.8.982.795 2.253 1.024 3.427.228 1.174.388 2.363.58 3.542m-14.116-108.53c-2.924.28-5.725 1.046-8.426 2.183-1.425.601-2.81 1.29-4.217 1.936-1.266.583-2.372 1.422-3.149 2.546-.452.652-.96.877-1.635 1.005-2.235.413-3.839 1.94-5.575 3.211-2.111 1.546-3.806 3.46-4.798 5.932-.233.578-.7.931-1.22 1.294-.52.362-1.179.6-1.503 1.225m88.282 92.969c-1.507.972-2.691 2.335-4.094 3.44-1.987 1.565-4.012 3.051-6.383 4-2.139.854-4.209.679-6.269-.233-2.221-.987-4.364-.776-6.498.33-2.623 1.362-5.364 2.032-8.312 1.156m62.294-58.67c-.229 1.904-.475 3.812-.681 5.721-.292 2.757-.777 5.472-1.608 8.115-1.504 4.789-3.542 9.335-6.375 13.492-.626.917-1.201 1.885-2.161 2.518M153.19 47.525c-4.236-1.853-8.563-3.4-13.096-4.363-3.089-.656-6.2-1.073-9.34-1.408-2.289-.248-4.574.046-6.84-.29m16.173 8.461c-1.965-.385-3.838-1.105-5.799-1.54a24.814 24.814 0 0 0-4.455-.584c-1.823-.064-3.66-.15-5.46-.334-2.632-.267-5.246-.161-7.864-.138-1.714.014-3.45.165-5.127.642-.132.037-.302-.064-.452-.105m59.118 106.013c-.95.761-1.905 1.518-2.846 2.289-.604.496-1.225.826-2.048.959-.849.137-1.663.582-2.403 1.096-2.125 1.482-4.323 2.771-6.941 3.244-.991.179-1.937.743-2.847 1.229-1.745.936-3.605 1.592-5.483 2.129-2.102.596-3.774 1.67-5.003 3.463m17.887-30.077c-.845.234-1.65.472-2.422.986-.946.633-2.088.987-3.171 1.39-.242.092-.63-.069-.896-.215-.763-.418-1.663-.413-2.133.156-1.316 1.596-3.254 1.532-4.94 2.137-1.261.455-2.582.152-3.87.239-.462.032-.836-.184-1.129-.473-.745-.729-1.613-.986-2.627-.912-.603.045-1.22-.042-1.819.018-1.037.105-1.933-.087-2.504-1.041-.484-.808-1.563-.822-2.056-1.597m52.174-61.068c-1.229-1.133-1.974-2.647-3.061-3.9-1.663-1.912-3.381-3.761-5.237-5.495-1.942-1.821-3.925-3.592-5.734-5.565a29.641 29.641 0 0 0-7.837-6.083c-.822-.445-1.562-1.055-2.508-1.257m5.011 37.392c-.758-.761-1.416-1.688-2.303-2.252-1.562-1-2.581-2.39-3.513-3.923-.713-1.17-1.549-2.183-2.943-2.674-.526-.184-1.11-.317-1.471-.142-.814.39-.997.04-1.294-.606-.575-1.252-.836-2.684-1.919-3.67-1.626-1.477-3.491-2.074-5.698-1.748-.964.142-1.992.17-2.956-.197m-6.727 66.328c.919.358 1.814.794 2.847.688.882-.087 1.645.083 2.417.652.754.555 1.714.766 2.71.734a14.568 14.568 0 0 1 7.178 1.582c1.956.996 3.857.542 5.685-.353 1.028-.505 2.083-.821 3.198-1.014m-34.394-42.197c.119-.72.804-1.014 1.27-1.216 2.326-1 3.532-3.303 5.648-4.44-.635-1.335-.471-1.808.717-1.978.64-.091 1.188-.426 1.819-.486.407-.037.612-.28.69-.684.201-1.06.576-2.1.333-3.202-.127-.596.101-1.087.339-1.605.566-1.248.662-2.491.027-3.78-.238-.482-.338-1.07-.516-1.578-.695-1.992-2.299-3.065-4.296-3.28-1.256-.138-2.6-.335-3.865.178m-9.799 79.37c1.115 1.477 2.07 3.06 3.263 4.491 1.183 1.422 1.562 3.28 1.722 5.115.046.509.037 1.064.274 1.473.777 1.325 1.061 2.798 1.463 4.243.69 2.459 2.376 4.349 3.765 6.395.452.665 1.051 1.229 1.581 1.84"/><path d="M131.429 79.66c-.872 0-1.745.014-2.618 0-1.421-.022-1.979 1.134-2.44 2.092-.283.592-.649.817-1.097.982-2.531.931-4.875 2.225-7.041 3.812-.964.711-1.371 1.771-1.577 3.051-.205 1.285-.808 2.592-1.654 3.656-.635.803-1.11 1.606-1.119 2.647m-11.733 33.506c-.918-.899-2.097-.78-3.185-.66-1.745.192-2.64-1.083-3.751-1.987-.366-.293-.133-.78.119-1 .694-.615.74-1.39.653-2.188-.082-.785.183-1.454.608-2.042.192-.266.292-.545.425-.821 1.115-2.293.96-2.789-1.248-4.115-.448-.073-.653.422-.648.569.036 1.789-1.38 2.372-2.564 3.051-.594.339-1.183.66-1.549 1.197-.398.583-.941 1.12-.52 2.06.383.867-.65 1.463-.92 2.252-.141.418-.552.822-.735 1.28-.274.688-.31 1.533.457 1.785 1.206.394 1.86 1.495 2.96 1.95-.282.931-.177 1.541.76 2.142 1.27.817 2.645 1.422 3.897 2.248.58.381 1.234.105 1.832.326 1.399.513 2.847.834 4.323 1.046.841.119 1.654-.111 2.509-.046 2.28.16 3.861 1.128 4.533 3.362.114.381.228.753.484 1.014 1.266 1.289 1.677 3.014 2.353 4.597.251.592.754 1.385-.201 1.931m45.908 23.678a14.415 14.415 0 0 1-4.788 4.111c-.736.39-1.586.724-2.376.435-1.636-.591-3.085.216-4.556.537-1.969.427-3.916.959-5.931.84-1.787-.106-3.468.633-5.241.481M120.953 55.3c-1.366.194-2.737.354-4.099.579-1.8.298-3.477 1.055-5.245 1.463-3.679.854-7.316 1.9-11.045 2.537-.726.124-1.444.303-2.166.454m-27.567 33.05c.16 1.069-.64 1.821-.941 2.734-.425 1.28-.736 2.601-.717 3.899.027 1.9.717 3.661 2.12 5.024 1.055 1.018 1.681 2.147 1.997 3.651.415 2.01 1.722 3.643 3.235 5.051.512.477.991.987 1.485 1.482m63.44-38.309c-.15-.115-.288-.266-.457-.335-1.649-.67-3.098-1.454-4.034-3.179-.983-1.803-2.929-2.138-4.849-2.193a32.661 32.661 0 0 1-3.536-.312c-1.376-.192-2.413.753-3.4 1.579-.548.458-1.138.844-1.713 1.252-.544.385-1.17.468-1.709.303-1.645-.496-3.4.032-5.059-.817-.932-.477-2.134.037-2.929.954-.338.39-.58.886-1.078 1.078-.608-.142-.832-.642-1.193-.968-.68-.61-1.517-.82-2.266-.422-1.357.725-2.413 1.84-3.185 3.184-.119.207-.174.684.32.79m31.224 71.819c1.065.01 1.892.583 2.737 1.138 2.659 1.748 5.497 1.707 8.293.532 1.358-.569 2.578-.72 3.766.06 2.257 1.486 5.108 1.197 7.073-.817m-70.51-55.233c-.731.578-1.563.973-2.394 1.367-1.303.62-2.285 1.482-2.637 2.973-.169.711-.53 1.372-.777 2.064-.466 1.299-.096 1.849 1.248 1.822.909-.019 1.677-.019 2.202 1.018.512 1.005 1.677 1.408 2.7 1.45 1.12.041 1.838.642 2.61 1.215.8.592 1.663.968 2.632 1.129m62.533-15.214c.124-.807-.21-1.344-1.023-1.353-1.184-.014-1.988-.532-2.637-1.496-.42-.628-1.051-1.064-1.809-1.27-.873-.239-1.284-.785-1.147-1.716.027-.179.1-.404-.105-.573-1.412-1.175-2.856-2.248-4.785-2.423-.411-.036-.785.142-1.005.285-1.855 1.206-4.016 1.358-6.059 1.908m40.782.466c-.124.73.498 1.097.813 1.592 2.344 3.666 3.939 7.657 5.228 11.79a62.15 62.15 0 0 1 1.932 8.12m-9.462 17.381c-.69 2.468-1.8 4.794-3.911 6.23-1.865 1.271-2.664 2.876-2.938 4.973-.156 1.197-.75 2.257-1.819 2.84-1.307.711-2.175 1.77-2.966 2.986-.653 1.009-1.43 1.941-2.604 2.413m31.101-40.715c.229 1.601.572 3.197.649 4.803.069 1.413.233 2.821.247 4.23.041 3.927.014 7.853.014 11.78m-9.331-45.973c.945 1.812 2.088 3.514 2.988 5.362 1.851 3.794 3.034 7.785 3.847 11.905.142.725.302 1.45.453 2.175m-85.312-50.434c-2.966.403-5.927.871-8.764 1.848-2.577.886-5.077 1.982-7.53 3.175-.736.358-1.518.62-2.276.922m74.375 25.277c1.992 2.987 4.816 5.271 6.84 8.23 1.234 1.803 1.91 3.78 2.189 5.946.132 1.023.192 2.147.992 2.977m-55.579 18.754c.489-1.299-1.311-4.161-3.075-4.239-1.769-.074-3.459.009-4.908 1.257-2.001 1.72-4.487 2.56-6.826 3.67m41.921-46.427c2.029.752 4.181.473 6.27.77 1.238.175 2.581.363 3.363 1.221 1.901 2.087 4.172 3.546 6.653 4.757M86.887 55.531c-1.792 1.055-3.72 1.83-5.58 2.753-3.833 1.899-7.32 4.335-10.596 7.083m63.915 82.794c-.694-.023-1.352.215-2.047.261-1.558.096-2.897-.266-3.989-1.404-.448-.468-1.014-.454-1.595-.463-.653-.009-.881.275-.927.922-.096 1.477.082 2.679 1.709 3.353 1.302.542 2.344 1.537 3.335 2.579 1.006 1.055 2.349 1.67 3.642 2.28 1.746.821 2.23 2.367 2.609 4.027m3.18-54.206c1.549-1.822 2.431-3.964 2.828-6.294.169-.987.521-1.932.494-2.969-.055-2.454-1.394-4.294-3.779-5.032m7.289 24.465c-1.055-.032-1.786.95-2.847.936-.118 0-.237.221-.457.216-1.22-.009-2.449.193-3.641.165-2.212-.055-4.181.587-6.16 1.413-.534.225-1.078.528-1.7.473M90.875 96.356c.05.89.37 1.312 1.375 1.055.736-.189 1.34.1 1.485 1 .083.504.302.99.444 1.49.557 2.033 1.805 3.542 3.527 4.698.265.175.457.454.69.679 1.037.991 1.769 2.065.772 3.615 1.527.262 2.893.619 3.555 2.101m18.005 10.977c-1.736 1.069-4.715 1.069-5.693-.918-.27-.55-.512-1.119-1.033-1.482-.708-.49-1.375-.775-2.294-.27-.859.472-1.722 1.041-2.828.977-.727-.041-.471.908-.973 1.275-.284-.046-.731-.261-.937-.119-.261.179-.425.638-.462.991-.059.628-.214 1.179-.703 1.601m51.48-69.636c-3.984-1.611-8.06-2.923-12.301-3.666-.653-.115-1.293-.298-1.937-.454m44.311 60.953c.256 3.05.069 6.101-.013 9.147-.046 1.601-.215 3.202-.329 4.803m-64.704-3.653c.892 1.068 2.025 1.738 3.418 1.697 2.079-.064 3.72.482 4.446 2.651.028.078.055.175.115.225.182.161.411.468.562.436 1.827-.413 2.389 2.225 4.222 1.739M88.371 58.617c-2.084 1.688-4.405 2.977-6.954 3.753-2.706.82-4.346 2.633-5.347 5.17"/><path d="M107.282 105.961c.452.537 1.106.913 1.362 1.601.329.885.964 1.702.763 2.748-.754.248-1.659.105-1.609 1.372.032.711-.955 1.009-1.882.679-1.156-.413-2.257-.647-3.546-.404-1.033.197-1.764.55-2.125 1.449-.283.702-.717.932-1.393.904m61.285-3.893c-2.084-.161-4.003.33-5.817 1.358a1.78 1.78 0 0 1-1.48.155c-.713-.224-1.289.051-1.481.886-.1.431-.311.835-.443 1.261-.475 1.514-.53 1.684-2.166 1.601m22.999 31.568c-2.047.977-4.57 1.22-5.89 3.34-1.083 1.738-2.527 3.101-3.898 4.56-.644.688-1.398 1.119-2.289 1.362M124.367 64.79c.114.788.964 1.39 1.709 1.26 2.541-.43 5.072-.527 7.64-.05.905.17 1.805.4 2.728.5m-18.913 73.543c.937.95 1.152 2.23 1.458 3.436.393 1.541.617 3.124.937 4.684.342 1.67 1.329 2.954 2.504 4.119M95.89 61.363c-1.298.05-2.253.904-3.295 1.505-2.724 1.583-5.392 3.257-8.207 4.684-.21.105-.388.06-.576.1m37.132-3.202c-2.394.009-4.793-.092-7.174.229-1.329.179-2.659.38-3.989.569m47.273 30.764c-.905 1.32-1.728 2.624-1.878 4.34-.119 1.344-1.161 2.399-2.015 3.422-.859 1.027-1.549 2.17-2.372 3.216M96.345 88.922c-1.508.294-3.075.138-4.56.67-1.147.408-1.92 1.16-2.125 2.312-.137.77-.283 1.56-.539 2.261-.26.711-.087 1.092.388 1.505m93.066 65.303c-2.047 2.514-3.779 5.243-5.501 7.982-.631 1.005-1.636 1.775-2.472 2.652m-138.29.799c.352-1.128 1.361-.858 2.202-1.036-.15-.413-.397-.661-.832-.803-.945-.312-1.521-.854-.868-1.822-.219-.674-.882-.532-1.124-.995-.557.578-.192 1.073-.055 1.596-.356.748-1.265.918-1.713 1.574m132.252-52.037c-1.398 1.463-2.39 3.202-3.162 5.041-.412.982-1.289.932-1.974 1.083-.942.202-1.965.051-2.952.051m9.455-26.414c0 1.372.489 3.037-.109 4.051-.978 1.656-2.098 3.363-3.647 4.643-.498.413-.987.839-1.48 1.257m-31.44 10.748c-1.348-.794-2.824-1.349-4.336-1.537-.946-.119-2.006.294-2.943.652-.827.316-1.59.623-2.509.724-.982.11-1.901.776-2.883 1.216-.388-.693-1.279-1.092-1.11-2.083m32.227-13.38c-1.481-.44-2.431.05-2.975 1.367-.717 1.734-1.439 3.45-1.352 5.381m-10.928-19.329c-.124-.138-.279-.34-.448-.22-1.343.954-2.97 1.202-4.455 1.803-.686.275-1.184.637-1.239 1.39-.064.904-.461 1.463-1.375 1.6m12.417 9.721c-1.782 1.239-3.596 2.335-5.927 1.84-.904-.193-1.832-.243-2.732.106m-11.406 28.472c.278.455.744.395 1.137.331 1.202-.202 1.979.39 2.367 1.399.402 1.037.855 1.349 1.974.94 1.239-.449 1.453-.243 2.038.991m2.747-32.818c-.9-.064-1.65.046-1.485 1.257.046.33-.078.454-.443.596-1.883.743-3.733 1.574-5.593 2.376m30.638 46.315c-1.073.486-2.056 1.023-3.34.298-.484-.27-1.435.152-2.12.409-1.005.38-2.02.601-3.084.665m-39.636-83.827c-1.837-2.601-5.246-3.349-7.855-1.707-.078.05-.082.22-.119.335m57.191 95.604c-.526.767-1.056 1.533-1.645 2.381-2.029-.724-4.072-.412-6.101.133m-34.515-94.799c1.188 1.643 2.682 2.955 4.318 4.134.443.32.85.49 1.38.445.653-.055 1.142.394 1.097.908-.087.9.379 1.362.955 1.835M81.195 69.254c-1.736 1.61-3.536 3.133-5.579 4.353-.914.546-1.791 1.161-2.28 2.166m28.937 51.461c.494.468.576 1.078.572 1.716-.023 1.918 1.293 3.17 2.289 4.565.42.587.973 1.078 1.467 1.61M98.398 89.27c2.198 2.004 4.351 4.05 5.104 7.096.055.225.27.34.252.565m31.668 70.901c.909.954 1.832 1.899 2.732 2.863.933 1 2.185 1.367 3.427 1.679.489.124.983.243 1.472.376m7.625-81.082c-.38.761-.933 1.486-1.106 2.294-.425 1.99-1.901 2.587-3.574 2.931-.278.06-.571.363-.904.151m26.32-20.247c1.878 2.523 3.761 5.046 5.808 7.432m-63.327 5.835c-.905-.224-1.64-.688-2.175-1.481-.256-.376-.548-.762-.914-1.023-1.22-.881-2.559-.17-2.755 1.358-.046.366.059.688.027 1.032m14.469 43.459c.388-1.376.589-1.542 1.709-1.491.425.018.676.101.95.55.448.73.868 1.491 1.271 2.23.456.839 1.014.908 1.763.885.859-.027 1.686.046 2.28.799M107.172 80.46c.265.194.53.386.8.574.534.377.461.922.095 1.239-.959.817-.868 1.51-.127 2.45.479.61.333 1.578.827 2.261m91.579 45.625c.164 1.964-.663 3.739-1.028 5.602-.06.307-.151.61-.224.917m-84.406-9.948c.827 1.101 1.896 1.656 3.303 1.614.759-.022 1.513.372 1.773 1.033.224.569.626.481.964.665m-6.603-35.91c.297 1.675.96 3.17 1.915 4.588.977 1.449.904 1.504-.092 2.729.361.418.896.422 1.366.574.722.229 1.549.302 2.143.72 1.143.798 2.372.867 3.67.894.777.019 1.498-.055 2.166-.472M105.469 90.18c1.128.73 1.192.73 1.229 2.518.027 1.321.384 2.725-.635 3.909-.114.133-.151.532-.105.903.155 1.271.246 2.597-.051 3.877-.164.697-.022 1.376-.096 2.064m18.788-5.267c.119 1.128-.137 2.252-.402 3.303-.27 1.073.1 1.931.288 2.876m4.327 55.575a8.54 8.54 0 0 0 2.089 2.816c1.051.931 1.997 1.968 3.038 2.904m34.397-29.732c-1.91.894-3.847 1.725-5.922 2.174m-55.586-10.866c.909.762 1.796 1.56 2.742 2.276.859.647 1.75 1.321 2.952.926m14.46-39.337c-.58-.987-1.978-1.115-3.066-.22-.58.477-1.069 1.055-1.604 1.591m-48.173-5.38c-1.412 1.537-2.49 3.312-3.647 5.032m36.446 48.038c1.475.652 2.577 1.835 3.861 2.757.365.262.662.587 1.151.555m44.084-19.787c-.297-.422-.598-.844-.955-1.353-.872.486-1.841.665-2.801.913-.475.124-.781.413-.48 1.023.147.298.064.771-.324.885-.589.175-.8.744-1.247 1.046m-38.735 7.551c1.17.706 2.139 1.647 3.08 2.629.525.55 1.302.66 1.933 1.032m8.55-105.551c1.014-.234 1.763-.79 2.038-1.835.082-.307-.078-.688.466-.693.434-.005.58.179.571.583-.014.715.941.197.955.959-.695.417-.832 1.247-.841 2.229-.722-.647-1.453-1.165-2.394-1.248m-45.795 85.887c1.115 1.317 1.86 2.977 3.523 3.789.164.083.306.078.461.101m37.027-27.562c-.055.803-.31 1.578-.242 2.404.059.739-.036 1.491.356 2.17m50.235 75.36c-1.544.716-3.093 1.408-4.556 2.289m50.231-52.837c.141-.192-.54-.261-.023-.605.516-.344 1.028-.812 1.361-1.514-.881-.546-2.001.729-2.746-.56-.009 1.638-1.092 2.074-2.44 2.413.832.624 1.983.62 2.047 1.845.795-.67 1.143-2.001 2.481-1.234M68.549 67.086c-.932 1.151-2.326 1.688-3.427 2.62-.293.247-.612.454-.786.811m-24.375 21.95c.457.518.91.01 1.39-.014.392.482.118 1 .059 1.78l1.133.679c-.037.128-.073.257-.11.38-1.522-.5-2.422.556-3.495 1.175m-6.835 32.025c-.553.055-.763.652-1.252.803-.503-.023-.635-.661-1.197-.688-.48.803 1.087 2.064-.763 2.601.927.688 2.097.399 2.645 1.289m103.765-51.464c-.037-.078-.096-.147-.11-.23-.48-2.34-.502-2.248-2.394-2.174m42.719 21.5c.74 1.358 1.553 2.67 2.504 3.89m-64.926 43.34c.653.84.612 1.904.891 2.863.082.275.164.679-.21.908M47.026 55.875c-.393 1.463-1.298 2.505-2.924 3.294 1.201.344 2.64.1 2.513 1.99.978-.807.644-2.82 2.435-2.15.092-.533-.283-.61-.43-.845m124.499 106.008c-1.06.78-1.704 1.945-2.614 2.867-.178.179-.287.427-.575.45M32.45 127.918c-.394.729.292 1.541-.188 2.312-.114.188.31.587.759.555.306-.023.626-.078.918.211-.617.867-1.869 1.354-2.056 2.638M199.552 57.7c-1.102.284-.978 1.252-1.152 2.11-.694-.313-1.316-.941-2.152-.615-.544.21-.462.83-.686 1.248m4.217 110.478c-.411-.101-.576.238-.795.458-.786.808-1.805.996-2.851 1.143M172.211 71.888c-.699-.367-.987-1.138-1.59-1.61-.425-.33-.782-.757-1.371-.794m-30.07-1.944c1.064.343 2.124.687 3.189 1.027M200.12 170.23c-.302.693-.151 1.519-.576 2.17-.32.487.164.615.356.661.339.083.649.115.791.486m-96.933-52.145c.868 1.051 1.704 2.115 2.184 3.423.073.206.055.39.096.578m95.102 48.144c-1.385.16-2.491.803-3.304 1.945m-1.477-2.746c1.262.619 1.371 1.771 1.367 2.973M93.503 79.09a17.27 17.27 0 0 0-2.847 1.716m-30.982 2.061c-.667.817-.562 1.794-.571 2.743m62.991 81.878c.274.899.63 1.776.571 2.744m-10.716-60.493c-.649-.854-1.476-1.147-2.504-.798m87.257-52.496c-.306 1.271-1.357 1.422-2.39 1.601"/><path d="M39.736 92.008c.188 1.44.074 1.66-1.252 2.4m118.687 63.475c-.886.248-1.572.876-2.39 1.257M33.695 170.918c.229.115.475.353.681.321.937-.138 1.207.505 1.485 1.165m11.162-116.99.722 1.624c.457-.096.837-.179 1.257-.27.256.724-.288.972-.727 1.275m93.868 101.096c-.626.023-.982-.413-1.366-.803-.443-.445-.914-.592-1.485-.229-.553.353-1.403-.23-1.823.573M113.202 52.445c-.745.243-1.485.514-2.28.574m94.094 23.439c.019-.422-.132-.858.169-1.284-.936-.455-1.485-1.533-2.677-1.464m-5.352-17.151c.114 1.027 1.152.899 1.709 1.371m-58.777 69.873c-.708-.28-1.43-.33-2.166-.115"/><path d="M203.086 74.05c-.023.657.352 1.359-.43 2.01.882.16 1.453-.56 2.139-.294m-20.053 10.98c.626.5.489 1.4 1.024 1.945M74.36 39.633c.269.78-.106 1.647.305 2.45.791-.299 1.444-.886 2.317-.734m131.221 106.01c.037 1.299.078 2.592.114 3.891m-76.2-7.777c.352.642 1.124.316 1.595.688m-13.9-26.763c.526.473.965 1.005 1.138 1.716m46.366-24.93c-.138.6.178 1.142.228 1.715M37.57 94.3c1.147.102 1.846.726 1.938 1.716M208.43 98.53c.909.312 1.823-.16 2.732 0M42.465 115.113c-.494.193-.987.381-1.48.574m1.484-1.605c.2.858.205 1.78.795 2.514m-12.409 39.115h-1.48m2.963-.344c-.302.716-.818.248-1.252.23m7.633-76.394c.31.404-.16 1.069.457 1.372"/><path d="M209.344 97.043c.269.904-.019 1.835.114 2.743M56.703 48.785c.21.624.695.977 1.252 1.257m36.903 26.071-.796 1.487m56.046-43.916c-.457-.105-.909-.22-1.366 0m60.374 115.62c-.781-.023-1.554-.013-2.28.344m-98.99-60.269h-1.252m74.045-39.906c-.11-.326-.11-.706-.521-.95l-1.188.835M30.844 154.449v2.514"/><path d="M58.642 49.125c-.416.743-.992 1.358-1.595 1.945m-18.11 26.989v.94c-.526.078-.946.142-1.367.202m61.167 39.111c-.118.519-.626.267-.909.459M74.594 39.863c.854.129 1.366.711 1.823 1.372m24.493-8.578c-.361-.037-.635.147-.941.303.132.422.256.803.374 1.183M114.57 152.16c.457.023.736.289.91.688m-79.386 19.843c.036.248.077.496.114.744M173.805 43.632c.635.165 1.389-.321 1.937.344"/></g><defs><clipPath id="c"><path fill="#fff" d="M28.656 29.105h190v176.927h-190z"/></clipPath></defs></svg>